# xmcd
#
# Track frame offsets: 
#        150
#        19430
#        37105
#        54532
#        70205
#        89030
#        105375
#        124284
#        138760
#        157415
#
# Disc length: 2349 seconds
#
# Revision: 0
# Processed by: cddbd v1.5.2PL0 Copyright (c) Steve Scherf et al.
# Submitted via: ExactAudioCopy v0.99pb5
#
DISCID=94092b0a
DTITLE=Eagles - On The Border (DTS from Q8)
DYEAR=1900
DGENRE=
TTITLE0=Already Gone
TTITLE1=You Never Cry Like a Lover
TTITLE2=Midnight Flyer
TTITLE3=My Man
TTITLE4=On the Border
TTITLE5=James Dean
TTITLE6=Ol' 55
TTITLE7=Is It True
TTITLE8=Good Day in Hell
TTITLE9=Best of My Love
EXTD=
EXTT0=
EXTT1=
EXTT2=
EXTT3=
EXTT4=
EXTT5=
EXTT6=
EXTT7=
EXTT8=
EXTT9=
PLAYORDER=
